# xmcd
#
# Track frame offsets: 
#        202
#        17982
#        43082
#        64687
#        86662
#        110335
#        130887
#        147342
#        169085
#        188317
#        208075
#        225415
#
# Disc length: 3304 seconds
#
# Revision: 2
# Processed by: cddbd v1.5.2PL0 Copyright (c) Steve Scherf et al.
# Submitted via: ExactAudioCopy v1.0b3
#
DISCID=9f0ce60c
DTITLE=U-Mynd - Prove My Love
DYEAR=1993
DGENRE=R&B
TTITLE0=Stop, Look, and Listen (To Your Heart)
TTITLE1=Come Home
TTITLE2=Do It To Ya
TTITLE3=Do It Like That
TTITLE4=Prove My Love
TTITLE5=Just For The Moment
TTITLE6=Why U Trippin
TTITLE7=Baby I Need U
TTITLE8=She Keeps Calling Me
TTITLE9=I Been Watching You
TTITLE10=Good Lovin
TTITLE11=The Ghetto
EXTD=
EXTT0=
EXTT1=
EXTT2=
EXTT3=
EXTT4=
EXTT5=
EXTT6=
EXTT7=
EXTT8=
EXTT9=
EXTT10=
EXTT11=
PLAYORDER=
